<svg width="356" height="269" viewBox="0 0 356 269" fill="none" xmlns="http://www.w3.org/2000/svg">
<path d="M13.7046 221.344L21.8558 219.314C22.6709 219.112 23.2485 218.755 23.5886 218.244C23.9286 217.734 24.002 217.09 23.8087 216.314C23.6154 215.537 23.2473 214.997 22.7043 214.693C22.1613 214.388 21.4823 214.337 20.6672 214.54L12.516 216.57L11.6897 213.251L19.8215 211.226C21.0377 210.924 22.1307 210.926 23.1006 211.234C24.0704 211.543 24.8783 212.083 25.5244 212.857C26.1671 213.617 26.6222 214.535 26.8896 215.609C27.157 216.682 27.1899 217.698 26.9885 218.655C26.7709 219.602 26.3028 220.426 25.5843 221.127C24.8527 221.832 23.8789 222.335 22.6627 222.638L14.5309 224.663L13.7046 221.344Z" fill="white"/>
<path d="M22.36 189.344L22.7457 192.742L14.786 199.402L23.3908 198.425L23.7765 201.824L9.82602 203.407L9.44034 200.009L17.4398 193.344L8.79529 194.325L8.4096 190.927L22.36 189.344Z" fill="white"/>
<path d="M7.9738 177.738L22.013 177.586L22.0498 181.006L8.01064 181.157L7.9738 177.738Z" fill="white"/>
<path d="M20.3756 161.174L19.9136 166.394L22.3099 167.449L21.9943 171.015L8.45684 164.717L8.80597 160.773L23.2392 156.95L22.92 160.556L20.3756 161.174ZM17.6683 161.818L12.3949 163.098L17.3633 165.265L17.6683 161.818ZM7.30257 166.643C5.36513 166.15 4.46342 165.147 4.59742 163.633C4.62329 163.341 4.6921 163.092 4.80388 162.888C4.90356 162.669 5.05383 162.408 5.2547 162.105C5.40867 161.878 5.52533 161.694 5.60466 161.554C5.67072 161.412 5.7108 161.262 5.72491 161.102C5.7684 160.611 5.49484 160.299 4.90423 160.166L5.0594 158.413C6.99684 158.906 7.89855 159.909 7.76454 161.423C7.73868 161.716 7.67591 161.971 7.57624 162.19C7.46446 162.394 7.30814 162.648 7.10727 162.951C6.9533 163.179 6.84328 163.363 6.77723 163.505C6.69789 163.645 6.65117 163.795 6.63706 163.954C6.59357 164.445 6.86654 164.764 7.45597 164.91L7.30257 166.643Z" fill="white"/>
<path d="M25.8557 143.897C25.5686 145.185 25.0053 146.303 24.1659 147.249C23.3295 148.183 22.3066 148.85 21.0973 149.25C19.8779 149.634 18.598 149.676 17.2576 149.378C15.9171 149.079 14.7829 148.498 13.855 147.636C12.9299 146.76 12.287 145.722 11.9262 144.522C11.5683 143.308 11.5329 142.057 11.82 140.769C12.1071 139.48 12.6689 138.369 13.5054 137.435C14.3448 136.489 15.3662 135.828 16.5697 135.455C17.776 135.068 19.0495 135.024 20.3899 135.322C21.7303 135.621 22.871 136.203 23.812 137.069C24.7399 137.931 25.3843 138.963 25.7451 140.163C26.106 141.364 26.1428 142.608 25.8557 143.897ZM22.8104 143.218C23.054 142.125 22.8839 141.172 22.3002 140.358C21.7193 139.532 20.8302 138.986 19.6329 138.719C18.4226 138.449 17.3856 138.567 16.5219 139.071C15.6481 139.559 15.0894 140.35 14.8458 141.443C14.5993 142.549 14.7599 143.514 15.3278 144.337C15.8985 145.147 16.7956 145.689 18.0189 145.961C19.2292 146.231 20.2713 146.122 21.1451 145.634C22.0088 145.129 22.5639 144.324 22.8104 143.218Z" fill="white"/>
<path d="M21.9135 110.262C22.5091 108.907 23.2982 107.841 24.2806 107.064C25.263 106.287 26.3632 105.839 27.5811 105.719C28.7922 105.581 30.0325 105.791 31.3019 106.35C32.5591 106.902 33.5526 107.674 34.2822 108.665C35.0172 109.643 35.4279 110.763 35.5142 112.025C35.6059 113.274 35.3567 114.57 34.7664 115.912L32.6496 120.728L19.7967 115.077L21.9135 110.262ZM31.9682 114.923C32.4887 113.739 32.5703 112.675 32.2132 111.731C31.856 110.788 31.0854 110.056 29.9014 109.535C28.7175 109.015 27.651 108.939 26.7022 109.309C25.7533 109.678 25.0186 110.455 24.4981 111.639L23.8462 113.122L31.3162 116.406L31.9682 114.923Z" fill="white"/>
<path d="M44.6199 97.1147C43.9353 98.2434 43.0439 99.1218 41.9456 99.75C40.8542 100.367 39.6717 100.671 38.3981 100.663C37.12 100.636 35.8938 100.267 34.7195 99.5544C33.5453 98.8422 32.6567 97.9291 32.0537 96.8149C31.4577 95.6893 31.1809 94.5 31.2235 93.2471C31.2729 91.9829 31.6399 90.7864 32.3244 89.6577C33.0089 88.5291 33.8969 87.6564 34.9883 87.0396C36.0866 86.4114 37.2656 86.1129 38.5254 86.144C39.7922 86.1638 41.0127 86.5297 42.1869 87.2419C43.3612 87.954 44.2555 88.8707 44.8698 89.9918C45.4728 91.106 45.753 92.2895 45.7104 93.5424C45.6679 94.7953 45.3044 95.9861 44.6199 97.1147ZM41.9521 95.4968C42.5329 94.5392 42.677 93.5817 42.3843 92.6245C42.0985 91.6559 41.4311 90.8535 40.3823 90.2174C39.322 89.5744 38.3021 89.3534 37.3224 89.5546C36.3383 89.7374 35.5558 90.3076 34.975 91.2653C34.3873 92.2343 34.2307 93.1997 34.5051 94.1614C34.7864 95.1117 35.4629 95.9118 36.5345 96.5618C37.5948 97.2048 38.617 97.4349 39.6011 97.2521C40.5807 97.0509 41.3644 96.4658 41.9521 95.4968Z" fill="white"/>
<path d="M55.6124 81.269C54.975 82.0738 54.2732 82.6916 53.507 83.1223C52.7407 83.5529 51.9484 83.7589 51.1299 83.74C50.3197 83.7107 49.5457 83.4209 48.8079 82.8707L51.0677 80.0171C51.5085 80.2981 51.9338 80.4053 52.3437 80.3387C52.7431 80.2639 53.096 80.0331 53.4023 79.6463C53.7168 79.2491 53.8763 78.8652 53.8807 78.4945C53.8747 78.1155 53.7096 77.7978 53.3856 77.5411C53.1138 77.3259 52.8146 77.242 52.4879 77.2895C52.1695 77.3264 51.8452 77.4353 51.515 77.616C51.193 77.7863 50.7644 78.0591 50.229 78.4345C49.4466 78.9715 48.7677 79.3778 48.1923 79.6534C47.6168 79.929 46.9865 80.0592 46.3014 80.0438C45.6162 80.0285 44.9287 79.7477 44.2388 79.2014C43.2144 78.3902 42.7086 77.3859 42.7214 76.1884C42.7238 74.9828 43.1968 73.7841 44.1404 72.5925C45.1006 71.38 46.1673 70.6344 47.3403 70.3558C48.5029 70.0689 49.6223 70.3091 50.6985 71.0763L48.4015 73.9769C48.0296 73.7164 47.6491 73.6277 47.2601 73.7109C46.8607 73.7857 46.512 74.0113 46.214 74.3876C45.9574 74.7116 45.8393 75.0433 45.8597 75.3826C45.8697 75.7137 46.0367 76.0075 46.3607 76.2641C46.7161 76.5455 47.1255 76.5977 47.589 76.4204C48.0525 76.2432 48.6807 75.8903 49.4735 75.3616C50.2768 74.8412 50.962 74.4484 51.5292 74.1832C52.1046 73.9076 52.7297 73.7733 53.4044 73.7803C54.0791 73.7874 54.7457 74.0517 55.4043 74.5732C56.0314 75.0698 56.4728 75.683 56.7284 76.4126C56.9922 77.1318 57.0357 77.9145 56.8587 78.7608C56.6818 79.6071 56.2663 80.4432 55.6124 81.269Z" fill="white"/>
<path d="M65.707 59.3789C64.8005 58.3296 64.2212 57.2002 63.9692 55.9907C63.7085 54.7711 63.7856 53.5856 64.2006 52.4343C64.6169 51.2641 65.3396 50.2345 66.3688 49.3454C67.63 48.2559 68.9972 47.6562 70.4705 47.5463C71.9438 47.4365 73.3286 47.8259 74.6249 48.7147L71.7796 51.1727C71.1842 50.9118 70.5895 50.8353 69.9956 50.9432C69.4117 51.0423 68.8725 51.3055 68.3781 51.7326C67.5811 52.4212 67.175 53.2565 67.16 54.2385C67.145 55.2205 67.5385 56.1757 68.3404 57.1039C69.1423 58.0322 70.0302 58.5602 71.004 58.6881C71.9778 58.8159 72.8632 58.5355 73.6603 57.8469C74.1547 57.4198 74.4933 56.9246 74.6763 56.3613C74.8693 55.7893 74.88 55.1898 74.7083 54.5628L77.5536 52.1048C78.2446 53.5165 78.4288 54.9432 78.1061 56.3849C77.7746 57.8165 76.9783 59.0771 75.7171 60.1666C74.688 61.0557 73.5686 61.6262 72.3591 61.8782C71.151 62.1114 69.9669 62.0155 68.8068 61.5905C67.6468 61.1654 66.6135 60.4283 65.707 59.3789Z" fill="white"/>
<path d="M81.718 37.6905L89.7641 49.1963L86.9614 51.1562L78.9153 39.6505L81.718 37.6905Z" fill="white"/>
<path d="M92.037 39.1378C91.3625 37.9263 91.0246 36.7028 91.0235 35.4673C91.0159 34.2202 91.3321 33.0751 91.9722 32.032C92.6174 30.9707 93.5342 30.1093 94.7224 29.4478C96.1786 28.637 97.6391 28.3274 99.104 28.5191C100.569 28.7107 101.846 29.3732 102.935 30.5067L99.6495 32.3357C99.1195 31.9593 98.5527 31.7637 97.9492 31.7487C97.3574 31.7272 96.776 31.8754 96.2052 32.1932C95.2849 32.7056 94.7177 33.441 94.5036 34.3996C94.2895 35.3581 94.4808 36.3732 95.0775 37.445C95.6742 38.5167 96.4363 39.2141 97.3639 39.537C98.2915 39.8599 99.2154 39.7652 100.136 39.2528C100.707 38.935 101.139 38.5188 101.432 38.0044C101.737 37.4836 101.87 36.8987 101.829 36.2499L105.114 34.4209C105.504 35.9435 105.394 37.3779 104.786 38.724C104.171 40.0585 103.135 41.1311 101.679 41.9418C100.49 42.6034 99.2785 42.9347 98.043 42.9359C96.8127 42.9189 95.6728 42.5845 94.6232 41.9328C93.5736 41.281 92.7115 40.3494 92.037 39.1378Z" fill="white"/>
<path d="M116.641 31.6264L120.78 29.9108L121.791 32.3495L114.493 35.3749L109.116 22.4052L112.275 21.0955L116.641 31.6264Z" fill="white"/>
<path d="M127.389 15.612L131.671 28.9831L128.414 30.0262L124.132 16.6551L127.389 15.612Z" fill="white"/>
<path d="M143.849 25.9124C142.847 26.1337 141.912 26.1692 141.046 26.0191C140.18 25.8689 139.436 25.528 138.813 24.9964C138.204 24.4619 137.787 23.7483 137.563 22.8557L141.117 22.071C141.281 22.5673 141.543 22.9191 141.903 23.1264C142.26 23.3207 142.679 23.3647 143.161 23.2583C143.656 23.1491 144.022 22.9522 144.259 22.6677C144.494 22.3701 144.567 22.0195 144.478 21.6159C144.403 21.2773 144.224 21.0233 143.941 20.8537C143.671 20.6812 143.351 20.5607 142.98 20.4922C142.623 20.4209 142.119 20.3616 141.466 20.3144C140.521 20.2364 139.738 20.1225 139.118 19.9727C138.497 19.8228 137.927 19.5256 137.405 19.0809C136.884 18.6361 136.528 17.9841 136.338 17.1248C136.057 15.8489 136.299 14.7508 137.065 13.8307C137.829 12.8975 138.953 12.2671 140.437 11.9394C141.947 11.606 143.245 11.7018 144.33 12.2269C145.413 12.7389 146.129 13.6322 146.479 14.9068L142.866 15.7044C142.742 15.2675 142.503 14.9584 142.149 14.7771C141.792 14.5828 141.379 14.5374 140.91 14.6409C140.507 14.73 140.206 14.9125 140.007 15.1884C139.806 15.4514 139.75 15.7846 139.839 16.1882C139.937 16.6309 140.221 16.93 140.692 17.0854C141.163 17.2408 141.873 17.364 142.822 17.455C143.773 17.559 144.553 17.6873 145.16 17.84C145.78 17.9899 146.35 18.2806 146.868 18.7123C147.387 19.144 147.737 19.77 147.918 20.5903C148.09 21.3715 148.045 22.1256 147.782 22.8527C147.532 23.5769 147.072 24.2111 146.4 24.7554C145.728 25.2996 144.878 25.6853 143.849 25.9124Z" fill="white"/>
<path d="M164.981 8.42083L165.269 11.1456L161.57 11.5371L162.759 22.7744L159.358 23.1343L158.169 11.897L154.47 12.2885L154.181 9.56376L164.981 8.42083Z" fill="white"/>
<path d="M182.011 19.646L176.771 19.579L175.9 22.048L172.32 22.0023L177.579 8.02836L181.539 8.07897L186.439 22.1827L182.819 22.1365L182.011 19.646ZM181.165 16.9949L179.491 11.8331L177.705 16.9507L181.165 16.9949Z" fill="white"/>
<path d="M198.118 23.5939C197.101 23.4566 196.212 23.1683 195.45 22.7292C194.689 22.29 194.107 21.7137 193.706 21.0003C193.317 20.2886 193.172 19.4751 193.268 18.5598L196.876 19.0468C196.859 19.5692 196.984 19.9897 197.25 20.3082C197.518 20.6135 197.897 20.7992 198.386 20.8652C198.888 20.933 199.3 20.8742 199.621 20.6888C199.943 20.4902 200.132 20.1861 200.188 19.7765C200.234 19.4329 200.154 19.1328 199.946 18.8761C199.752 18.6211 199.493 18.3978 199.169 18.206C198.858 18.0161 198.405 17.7867 197.809 17.5179C196.948 17.1191 196.252 16.7426 195.721 16.3884C195.19 16.0342 194.757 15.5586 194.42 14.9615C194.084 14.3645 193.974 13.6299 194.092 12.7578C194.267 11.4629 194.872 10.5154 195.909 9.91532C196.947 9.30202 198.219 9.09705 199.725 9.30042C201.258 9.50735 202.443 10.0441 203.282 10.9107C204.122 11.7641 204.487 12.8493 204.376 14.1664L200.709 13.6714C200.743 13.2185 200.626 12.8461 200.356 12.554C200.087 12.2487 199.715 12.0639 199.24 11.9997C198.83 11.9444 198.485 12.0121 198.203 12.2029C197.924 12.3804 197.756 12.674 197.701 13.0836C197.64 13.5328 197.804 13.9115 198.193 14.2197C198.582 14.5278 199.206 14.8879 200.066 15.2999C200.923 15.7251 201.611 16.1139 202.128 16.4663C202.659 16.8205 203.093 17.2895 203.432 17.8734C203.77 18.4572 203.883 19.1653 203.77 19.9978C203.663 20.7906 203.361 21.4831 202.864 22.0752C202.38 22.6692 201.73 23.106 200.911 23.3857C200.093 23.6655 199.162 23.7349 198.118 23.5939Z" fill="white"/>
<path d="M229.812 16.3072C231.217 16.7721 232.353 17.4568 233.22 18.3614C234.086 19.266 234.637 20.3188 234.871 21.52C235.123 22.7127 235.03 23.9672 234.595 25.2837C234.164 26.5875 233.489 27.6495 232.572 28.4695C231.667 29.2937 230.591 29.8084 229.343 30.0136C228.109 30.223 226.795 30.0973 225.402 29.6367L220.409 27.9845L224.819 14.6551L229.812 16.3072ZM226.123 26.7574C227.351 27.1636 228.418 27.1443 229.323 26.6996C230.229 26.2548 230.885 25.4185 231.291 24.1907C231.697 22.9628 231.672 21.894 231.214 20.9843C230.757 20.0746 229.914 19.4166 228.686 19.0103L227.148 18.5015L224.585 26.2485L226.123 26.7574Z" fill="white"/>
<path d="M246.967 25.928L245.771 28.5041L249.925 30.4322L248.814 32.8269L244.66 30.8988L243.363 33.6925L248.062 35.8732L246.908 38.3586L239.107 34.7381L245.018 22.0029L252.819 25.6234L251.665 28.1087L246.967 25.928Z" fill="white"/>
<path d="M276.112 45.1479C275.648 45.8159 275.069 46.3226 274.374 46.6682C273.687 47.0027 272.908 47.1192 272.037 47.0175C271.167 46.9159 270.26 46.538 269.318 45.8838L267.577 44.6744L264.702 48.8139L261.893 46.863L269.902 35.3315L274.453 38.4919C275.372 39.1308 276.04 39.8296 276.454 40.5884C276.869 41.3471 277.041 42.116 276.971 42.8951C276.9 43.6742 276.614 44.4251 276.112 45.1479ZM270.656 43.5015C271.193 43.8742 271.68 44.0259 272.118 43.9566C272.556 43.8872 272.934 43.6226 273.254 43.1627C273.573 42.7027 273.689 42.2555 273.601 41.8211C273.513 41.3867 273.201 40.9831 272.665 40.6104L271.137 39.5494L269.129 42.4404L270.656 43.5015Z" fill="white"/>
<path d="M284.529 61.3472L280.619 57.8587L278.342 59.1501L275.67 56.7667L288.808 49.6722L291.763 52.3085L286.206 66.1669L283.505 63.757L284.529 61.3472ZM285.63 58.7914L287.754 53.7976L283.049 56.488L285.63 58.7914Z" fill="white"/>
<path d="M295.567 76.3665L297.639 70.6812L297.1 70.0635L293.107 73.5491L290.858 70.9728L301.434 61.7392L305.209 66.0632C305.937 66.8969 306.41 67.7322 306.627 68.569C306.853 69.4159 306.837 70.2086 306.579 70.9471C306.331 71.6768 305.896 72.3135 305.273 72.8572C304.57 73.471 303.767 73.8182 302.864 73.8987C301.969 73.9893 301.069 73.7487 300.163 73.177L298.105 79.2743L295.567 76.3665ZM298.923 68.472L300.317 70.069C300.729 70.5411 301.151 70.7918 301.584 70.8211C302.026 70.8605 302.457 70.696 302.879 70.3277C303.281 69.977 303.492 69.5802 303.513 69.1375C303.542 68.7048 303.351 68.2524 302.938 67.7803L301.544 66.1833L298.923 68.472Z" fill="white"/>
<path d="M309.89 91.333L306.961 86.988L304.435 87.6776L302.434 84.709L316.915 81.074L319.129 84.3576L310.326 96.4175L308.303 93.4157L309.89 91.333ZM311.587 89.1277L314.876 84.812L309.653 86.2587L311.587 89.1277Z" fill="white"/>
<path d="M327.719 98.9137L320.212 102.683C319.461 103.06 318.976 103.534 318.756 104.107C318.537 104.68 318.606 105.324 318.965 106.039C319.324 106.754 319.802 107.2 320.398 107.378C320.995 107.556 321.669 107.457 322.419 107.08L329.926 103.311L331.461 106.367L323.972 110.127C322.852 110.689 321.785 110.927 320.771 110.839C319.757 110.751 318.85 110.401 318.05 109.788C317.256 109.187 316.611 108.392 316.114 107.403C315.618 106.414 315.363 105.431 315.349 104.453C315.353 103.481 315.629 102.574 316.176 101.732C316.735 100.885 317.575 100.18 318.695 99.6173L326.184 95.8573L327.719 98.9137Z" fill="white"/>
<path d="M327.393 127.604L325.658 122.66L323.039 122.688L321.854 119.31L336.784 119.455L338.095 123.191L326.529 132.634L325.331 129.218L327.393 127.604ZM329.592 125.9L333.866 122.556L328.447 122.635L329.592 125.9Z" fill="white"/>
<path d="M339.852 147.507C339.057 147.681 338.288 147.659 337.544 147.44C336.812 147.218 336.162 146.774 335.593 146.107C335.023 145.44 334.615 144.547 334.37 143.427L333.915 141.356L328.992 142.437L328.259 139.096L341.972 136.086L343.16 141.497C343.4 142.591 343.414 143.557 343.203 144.396C342.991 145.234 342.594 145.915 342.013 146.438C341.432 146.962 340.711 147.318 339.852 147.507ZM336.971 142.59C337.111 143.228 337.365 143.671 337.733 143.917C338.101 144.164 338.559 144.228 339.106 144.107C339.652 143.987 340.041 143.738 340.272 143.36C340.503 142.982 340.549 142.473 340.409 141.835L340.01 140.018L336.572 140.773L336.971 142.59Z" fill="white"/>
<path d="M343.251 158.85L340.427 159.154L340.919 163.708L338.294 163.991L337.803 159.438L334.74 159.768L335.296 164.918L332.572 165.212L331.65 156.661L345.609 155.156L346.531 163.706L343.807 164L343.251 158.85Z" fill="white"/>
<path d="M340.19 181.024C340.013 181.837 339.603 182.488 338.961 182.979C338.332 183.47 337.611 183.713 336.798 183.709C335.625 183.704 334.693 183.287 334.003 182.457C333.327 181.641 332.992 180.499 332.998 179.033L333.027 172.493L347.067 172.554L347.039 178.874C347.033 180.301 346.701 181.413 346.045 182.21C345.388 183.02 344.499 183.423 343.379 183.418C342.553 183.415 341.867 183.192 341.322 182.749C340.777 182.32 340.4 181.745 340.19 181.024ZM341.372 175.949L341.362 178.189C341.36 178.749 341.478 179.177 341.717 179.471C341.969 179.779 342.335 179.934 342.815 179.936C343.294 179.938 343.662 179.786 343.917 179.481C344.171 179.188 344.3 178.762 344.302 178.202L344.312 175.962L341.372 175.949ZM335.761 178.445C335.758 179.018 335.883 179.459 336.135 179.767C336.4 180.088 336.78 180.249 337.273 180.252C337.766 180.254 338.154 180.089 338.435 179.757C338.717 179.438 338.859 178.992 338.861 178.418L338.872 175.939L335.772 175.925L335.761 178.445Z" fill="white"/>
<path d="M333.852 200.351L334.526 195.155L332.174 194.003L332.635 190.452L345.905 197.296L345.395 201.223L330.819 204.455L331.284 200.865L333.852 200.351ZM336.583 199.818L341.904 198.754L337.028 196.387L336.583 199.818Z" fill="white"/>
<path d="M328.063 215.892C328.317 214.897 328.706 214.047 329.231 213.342C329.755 212.637 330.395 212.126 331.15 211.81C331.902 211.507 332.727 211.456 333.625 211.658L332.723 215.185C332.206 215.108 331.774 215.183 331.427 215.411C331.092 215.642 330.864 215.996 330.742 216.474C330.616 216.965 330.627 217.381 330.774 217.721C330.934 218.065 331.214 218.288 331.614 218.39C331.95 218.476 332.258 218.431 332.537 218.254C332.812 218.091 333.064 217.86 333.292 217.56C333.517 217.273 333.797 216.85 334.134 216.289C334.63 215.48 335.084 214.832 335.497 214.346C335.911 213.86 336.434 213.485 337.066 213.22C337.698 212.955 338.44 212.931 339.292 213.149C340.558 213.473 341.429 214.184 341.905 215.283C342.394 216.385 342.45 217.673 342.073 219.145C341.69 220.644 341.02 221.759 340.062 222.491C339.117 223.227 337.996 223.463 336.701 223.201L337.618 219.616C338.064 219.702 338.447 219.629 338.769 219.394C339.103 219.163 339.33 218.815 339.449 218.35C339.551 217.95 339.524 217.599 339.367 217.297C339.223 216.999 338.951 216.798 338.55 216.696C338.111 216.584 337.716 216.703 337.365 217.053C337.014 217.404 336.584 217.982 336.075 218.788C335.553 219.59 335.087 220.228 334.677 220.701C334.264 221.187 333.748 221.564 333.129 221.833C332.509 222.101 331.793 222.131 330.979 221.923C330.204 221.725 329.551 221.344 329.021 220.782C328.487 220.233 328.128 219.535 327.946 218.69C327.763 217.845 327.802 216.913 328.063 215.892Z" fill="white"/>
<path d="M137.5 139.9V160.9C137.5 163 138.017 164.617 139.05 165.75C140.083 166.883 141.6 167.45 143.6 167.45C145.6 167.45 147.133 166.883 148.2 165.75C149.267 164.617 149.8 163 149.8 160.9V139.9H158.35V160.85C158.35 163.983 157.683 166.633 156.35 168.8C155.017 170.967 153.217 172.6 150.95 173.7C148.717 174.8 146.217 175.35 143.45 175.35C140.683 175.35 138.2 174.817 136 173.75C133.833 172.65 132.117 171.017 130.85 168.85C129.583 166.65 128.95 163.983 128.95 160.85V139.9H137.5ZM162.904 157.4C162.904 153.933 163.654 150.85 165.154 148.15C166.654 145.417 168.737 143.3 171.404 141.8C174.104 140.267 177.154 139.5 180.554 139.5C184.721 139.5 188.287 140.6 191.254 142.8C194.221 145 196.204 148 197.204 151.8H187.804C187.104 150.333 186.104 149.217 184.804 148.45C183.537 147.683 182.087 147.3 180.454 147.3C177.821 147.3 175.687 148.217 174.054 150.05C172.421 151.883 171.604 154.333 171.604 157.4C171.604 160.467 172.421 162.917 174.054 164.75C175.687 166.583 177.821 167.5 180.454 167.5C182.087 167.5 183.537 167.117 184.804 166.35C186.104 165.583 187.104 164.467 187.804 163H197.204C196.204 166.8 194.221 169.8 191.254 172C188.287 174.167 184.721 175.25 180.554 175.25C177.154 175.25 174.104 174.5 171.404 173C168.737 171.467 166.654 169.35 165.154 166.65C163.654 163.95 162.904 160.867 162.904 157.4ZM229.19 151.2C229.19 153.233 228.723 155.1 227.79 156.8C226.857 158.467 225.423 159.817 223.49 160.85C221.557 161.883 219.157 162.4 216.29 162.4H210.99V175H202.44V139.9H216.29C219.09 139.9 221.457 140.383 223.39 141.35C225.323 142.317 226.773 143.65 227.74 145.35C228.707 147.05 229.19 149 229.19 151.2ZM215.64 155.6C217.273 155.6 218.49 155.217 219.29 154.45C220.09 153.683 220.49 152.6 220.49 151.2C220.49 149.8 220.09 148.717 219.29 147.95C218.49 147.183 217.273 146.8 215.64 146.8H210.99V155.6H215.64Z" fill="white"/>
<path d="M120.837 48.3869C115.847 53.3774 113.136 59.7818 112.693 66.3116C111.975 72.3437 109.311 78.1908 104.681 82.8201C99.867 87.6344 93.7358 90.3237 87.4461 90.9072C87.3712 90.9138 87.2985 90.9226 87.2237 90.9292C87.2038 90.9314 87.184 90.9337 87.1642 90.9359C80.9777 91.5745 74.9608 94.2592 70.2193 99.001C59.2602 109.96 59.2602 127.726 70.2193 138.683C81.1784 149.642 98.9441 149.642 109.901 138.683C115.059 133.525 117.787 126.856 118.089 120.102C118.904 114.272 121.542 108.65 126.024 104.165C130.455 99.7342 136 97.1066 141.759 96.2592C148.576 95.9972 155.312 93.2707 160.517 88.0667C171.476 77.1076 171.476 59.3419 160.517 48.3851C149.562 37.4283 131.794 37.4305 120.837 48.3873V48.3869ZM95.6448 124.426C92.5615 127.509 87.5645 127.509 84.4811 124.426C81.3977 121.343 81.3978 116.346 84.4811 113.262C87.5644 110.179 92.5614 110.179 95.6448 113.262C98.7282 116.346 98.7281 121.343 95.6448 124.426ZM146.261 73.8101C143.177 76.8934 138.18 76.8934 135.097 73.8101C132.014 70.7268 132.014 65.7298 135.097 62.6464C138.18 59.563 143.177 59.5631 146.261 62.6464C149.342 65.7274 149.342 70.7267 146.261 73.8101Z" fill="white"/>
<path d="M282.607 97.8375C277.617 92.847 271.212 90.136 264.683 89.6934C258.651 88.9755 252.803 86.3107 248.174 81.6813C243.36 76.867 240.671 70.7358 240.087 64.4461C240.08 64.3712 240.072 64.2985 240.065 64.2237C240.063 64.2038 240.061 64.184 240.058 64.1642C239.42 57.9777 236.735 51.9608 231.993 47.2193C221.034 36.2602 203.268 36.2602 192.312 47.2193C181.353 58.1784 181.353 75.9441 192.312 86.901C197.469 92.0588 204.138 94.7873 210.893 95.089C216.722 95.9038 222.344 98.5422 226.829 103.024C231.26 107.455 233.888 113 234.735 118.759C234.997 125.576 237.724 132.312 242.927 137.517C253.887 148.476 271.652 148.476 282.609 137.517C293.564 126.562 293.564 108.794 282.607 97.8375H282.607ZM206.568 72.6448C203.485 69.5615 203.485 64.5645 206.568 61.4811C209.651 58.3977 214.649 58.3978 217.732 61.4811C220.815 64.5644 220.815 69.5614 217.732 72.6448C214.649 75.7282 209.652 75.7281 206.568 72.6448ZM257.184 123.261C254.101 120.177 254.101 115.18 257.184 112.097C260.267 109.014 265.264 109.014 268.348 112.097C271.431 115.18 271.431 120.177 268.348 123.261C265.265 126.342 260.267 126.342 257.184 123.261Z" fill="white"/>
<path d="M233.162 259.607C238.153 254.617 240.864 248.213 241.306 241.683C242.024 235.651 244.689 229.804 249.319 225.174C254.133 220.36 260.264 217.671 266.554 217.087C266.629 217.08 266.701 217.072 266.776 217.065C266.796 217.063 266.816 217.061 266.836 217.058C273.022 216.42 279.039 213.735 283.781 208.993C294.74 198.034 294.74 180.269 283.781 169.312C272.821 158.353 255.056 158.353 244.099 169.312C238.941 174.47 236.213 181.138 235.911 187.893C235.096 193.722 232.458 199.345 227.976 203.829C223.545 208.26 218 210.888 212.24 211.735C205.424 211.997 198.687 214.724 193.483 219.928C182.524 230.887 182.524 248.652 193.483 259.609C204.438 270.564 222.203 270.564 233.162 259.607V259.607ZM258.355 183.568C261.438 180.485 266.435 180.485 269.519 183.568C272.602 186.652 272.602 191.649 269.519 194.732C266.435 197.815 261.438 197.815 258.355 194.732C255.272 191.649 255.272 186.652 258.355 183.568ZM207.739 234.184C210.822 231.101 215.819 231.101 218.903 234.184C221.986 237.267 221.986 242.265 218.903 245.348C215.82 248.431 210.823 248.431 207.739 245.348C204.656 242.265 204.656 237.268 207.739 234.184Z" fill="white"/>
<path d="M71.3869 210.162C76.3774 215.153 82.7818 217.864 89.3117 218.307C95.3437 219.024 101.191 221.689 105.82 226.319C110.634 231.133 113.324 237.264 113.907 243.554C113.914 243.629 113.923 243.701 113.929 243.776C113.931 243.796 113.934 243.816 113.936 243.836C114.575 250.022 117.259 256.039 122.001 260.781C132.96 271.74 150.726 271.74 161.683 260.781C172.642 249.822 172.642 232.056 161.683 221.099C156.525 215.941 149.856 213.213 143.102 212.911C137.272 212.096 131.65 209.458 127.165 204.976C122.734 200.545 120.107 195 119.259 189.241C118.997 182.424 116.271 175.687 111.067 170.483C100.108 159.524 82.3419 159.524 71.3851 170.483C60.4305 181.438 60.4305 199.203 71.3873 210.162H71.3869ZM147.426 235.355C150.509 238.438 150.509 243.435 147.426 246.519C144.343 249.602 139.346 249.602 136.262 246.519C133.179 243.436 133.179 238.439 136.262 235.355C139.346 232.272 144.343 232.272 147.426 235.355ZM96.8101 184.739C99.8934 187.823 99.8934 192.82 96.8101 195.903C93.7268 198.986 88.7298 198.986 85.6464 195.903C82.563 192.82 82.5631 187.823 85.6464 184.739C88.7274 181.656 93.7267 181.656 96.8101 184.739Z" fill="white"/>
<path d="M183.904 51.3412C181.455 52.0878 178.863 52.5129 176.171 52.5547C173.476 52.5965 170.866 52.253 168.388 51.5812C174.335 61.4826 174.506 73.9019 168.915 83.9533C171.364 83.2067 173.956 82.7817 176.647 82.7376C179.347 82.6958 181.961 83.0415 184.441 83.7177C178.49 73.8163 178.314 61.3947 183.904 51.3411L183.904 51.3412Z" fill="white"/>
<path d="M279.653 160.904C278.906 158.455 278.481 155.862 278.44 153.171C278.398 150.476 278.741 147.866 279.413 145.388C269.512 151.334 257.092 151.506 247.041 145.914C247.788 148.363 248.213 150.955 248.257 153.647C248.299 156.347 247.953 158.961 247.277 161.441C257.178 155.49 269.6 155.314 279.653 160.903L279.653 160.904Z" fill="white"/>
<path d="M170.091 256.653C172.54 255.907 175.132 255.482 177.823 255.44C180.519 255.398 183.129 255.741 185.606 256.413C179.66 246.512 179.488 234.092 185.08 224.041C182.631 224.788 180.039 225.213 177.348 225.257C174.648 225.299 172.033 224.953 169.554 224.277C175.505 234.178 175.68 246.6 170.091 256.653L170.091 256.653Z" fill="white"/>
<path d="M74.3409 147.091C75.0875 149.54 75.5126 152.132 75.5544 154.823C75.5962 157.519 75.2527 160.129 74.5809 162.606C84.4823 156.66 96.9016 156.488 106.953 162.08C106.206 159.631 105.781 157.039 105.737 154.348C105.695 151.647 106.041 149.033 106.717 146.554C96.816 152.505 84.3944 152.68 74.3408 147.091L74.3409 147.091Z" fill="white"/>
</svg>
