<svg width="230" height="230" viewBox="0 0 230 230" fill="none" xmlns="http://www.w3.org/2000/svg">
<path d="M75.5 100.9V121.9C75.5 124 76.0167 125.617 77.05 126.75C78.0833 127.883 79.6 128.45 81.6 128.45C83.6 128.45 85.1333 127.883 86.2 126.75C87.2667 125.617 87.8 124 87.8 121.9V100.9H96.35V121.85C96.35 124.983 95.6833 127.633 94.35 129.8C93.0167 131.967 91.2167 133.6 88.95 134.7C86.7167 135.8 84.2167 136.35 81.45 136.35C78.6833 136.35 76.2 135.817 74 134.75C71.8333 133.65 70.1167 132.017 68.85 129.85C67.5833 127.65 66.95 124.983 66.95 121.85V100.9H75.5ZM100.904 118.4C100.904 114.933 101.654 111.85 103.154 109.15C104.654 106.417 106.737 104.3 109.404 102.8C112.104 101.267 115.154 100.5 118.554 100.5C122.721 100.5 126.287 101.6 129.254 103.8C132.221 106 134.204 109 135.204 112.8H125.804C125.104 111.333 124.104 110.217 122.804 109.45C121.537 108.683 120.087 108.3 118.454 108.3C115.821 108.3 113.687 109.217 112.054 111.05C110.421 112.883 109.604 115.333 109.604 118.4C109.604 121.467 110.421 123.917 112.054 125.75C113.687 127.583 115.821 128.5 118.454 128.5C120.087 128.5 121.537 128.117 122.804 127.35C124.104 126.583 125.104 125.467 125.804 124H135.204C134.204 127.8 132.221 130.8 129.254 133C126.287 135.167 122.721 136.25 118.554 136.25C115.154 136.25 112.104 135.5 109.404 134C106.737 132.467 104.654 130.35 103.154 127.65C101.654 124.95 100.904 121.867 100.904 118.4ZM167.19 112.2C167.19 114.233 166.723 116.1 165.79 117.8C164.857 119.467 163.423 120.817 161.49 121.85C159.557 122.883 157.157 123.4 154.29 123.4H148.99V136H140.44V100.9H154.29C157.09 100.9 159.457 101.383 161.39 102.35C163.323 103.317 164.773 104.65 165.74 106.35C166.707 108.05 167.19 110 167.19 112.2ZM153.64 116.6C155.273 116.6 156.49 116.217 157.29 115.45C158.09 114.683 158.49 113.6 158.49 112.2C158.49 110.8 158.09 109.717 157.29 108.95C156.49 108.183 155.273 107.8 153.64 107.8H148.99V116.6H153.64Z" fill="white"/>
<path d="M58.8375 9.38687C53.847 14.3774 51.136 20.7818 50.6934 27.3116C49.9755 33.3437 47.3107 39.1908 42.6813 43.8201C37.867 48.6344 31.7358 51.3237 25.4461 51.9072C25.3712 51.9138 25.2985 51.9226 25.2237 51.9292C25.2038 51.9314 25.184 51.9337 25.1642 51.9359C18.9777 52.5745 12.9608 55.2592 8.2193 60.001C-2.73977 70.96 -2.73977 88.7258 8.2193 99.6826C19.1784 110.642 36.9441 110.642 47.901 99.6826C53.0588 94.5248 55.7873 87.8559 56.089 81.1016C56.9038 75.2719 59.5422 69.6498 64.0238 65.1653C68.4549 60.7342 74.0002 58.1066 79.7594 57.2592C86.5757 56.9972 93.3125 54.2707 98.5169 49.0667C109.476 38.1076 109.476 20.3419 98.5169 9.38507C87.5623 -1.57174 69.7943 -1.56949 58.8375 9.38727V9.38687ZM33.6448 85.426C30.5615 88.5093 25.5645 88.5093 22.4811 85.426C19.3977 82.3427 19.3978 77.3457 22.4811 74.2623C25.5644 71.1789 30.5614 71.179 33.6448 74.2623C36.7282 77.3456 36.7281 82.3426 33.6448 85.426ZM84.2607 34.8101C81.1774 37.8934 76.1804 37.8934 73.097 34.8101C70.0136 31.7268 70.0137 26.7298 73.097 23.6464C76.1803 20.563 81.1773 20.5631 84.2607 23.6464C87.3418 26.7274 87.3418 31.7267 84.2607 34.8101Z" fill="white"/>
<path d="M220.608 58.8375C215.617 53.847 209.213 51.136 202.683 50.6934C196.651 49.9755 190.804 47.3107 186.174 42.6813C181.36 37.867 178.671 31.7358 178.087 25.4461C178.081 25.3712 178.072 25.2985 178.065 25.2237C178.063 25.2038 178.061 25.184 178.059 25.1642C177.42 18.9777 174.735 12.9608 169.993 8.2193C159.034 -2.73977 141.269 -2.73977 130.312 8.2193C119.353 19.1784 119.353 36.9441 130.312 47.901C135.47 53.0588 142.139 55.7873 148.893 56.089C154.722 56.9038 160.345 59.5422 164.829 64.0238C169.26 68.4549 171.888 74.0002 172.735 79.7594C172.997 86.5757 175.724 93.3125 180.928 98.5169C191.887 109.476 209.653 109.476 220.609 98.5169C231.564 87.5623 231.564 69.7943 220.607 58.8375H220.608ZM144.568 33.6448C141.485 30.5615 141.485 25.5645 144.568 22.4811C147.652 19.3977 152.649 19.3978 155.732 22.4811C158.816 25.5644 158.815 30.5614 155.732 33.6448C152.649 36.7282 147.652 36.7281 144.568 33.6448ZM195.184 84.2607C192.101 81.1774 192.101 76.1804 195.184 73.097C198.268 70.0136 203.265 70.0137 206.348 73.097C209.431 76.1803 209.431 81.1773 206.348 84.2607C203.265 87.3418 198.268 87.3418 195.184 84.2607Z" fill="white"/>
<path d="M171.162 220.607C176.153 215.617 178.864 209.213 179.307 202.683C180.024 196.651 182.689 190.804 187.319 186.174C192.133 181.36 198.264 178.671 204.554 178.087C204.629 178.08 204.701 178.072 204.776 178.065C204.796 178.063 204.816 178.061 204.836 178.058C211.022 177.42 217.039 174.735 221.781 169.993C232.74 159.034 232.74 141.269 221.781 130.312C210.822 119.353 193.056 119.353 182.099 130.312C176.941 135.47 174.213 142.138 173.911 148.893C173.096 154.722 170.458 160.345 165.976 164.829C161.545 169.26 156 171.888 150.241 172.735C143.424 172.997 136.687 175.724 131.483 180.928C120.524 191.887 120.524 209.652 131.483 220.609C142.438 231.564 160.203 231.564 171.162 220.607V220.607ZM196.355 144.568C199.438 141.485 204.435 141.485 207.519 144.568C210.602 147.652 210.602 152.649 207.519 155.732C204.436 158.815 199.439 158.815 196.355 155.732C193.272 152.649 193.272 147.652 196.355 144.568ZM145.739 195.184C148.823 192.101 153.82 192.101 156.903 195.184C159.986 198.267 159.986 203.265 156.903 206.348C153.82 209.431 148.823 209.431 145.739 206.348C142.656 203.265 142.656 198.268 145.739 195.184Z" fill="white"/>
<path d="M9.38688 171.162C14.3774 176.153 20.7818 178.864 27.3117 179.307C33.3437 180.024 39.1908 182.689 43.8202 187.319C48.6345 192.133 51.3237 198.264 51.9072 204.554C51.9138 204.629 51.9227 204.701 51.9293 204.776C51.9315 204.796 51.9337 204.816 51.9359 204.836C52.5745 211.022 55.2592 217.039 60.001 221.781C70.96 232.74 88.7258 232.74 99.6826 221.781C110.642 210.822 110.642 193.056 99.6826 182.099C94.5248 176.941 87.8559 174.213 81.1016 173.911C75.2719 173.096 69.6498 170.458 65.1653 165.976C60.7342 161.545 58.1066 156 57.2592 150.241C56.9972 143.424 54.2707 136.687 49.0667 131.483C38.1077 120.524 20.3419 120.524 9.38507 131.483C-1.56948 142.438 -1.56948 160.203 9.38728 171.162H9.38688ZM85.426 196.355C88.5093 199.438 88.5093 204.435 85.426 207.519C82.3427 210.602 77.3457 210.602 74.2623 207.519C71.1789 204.436 71.179 199.439 74.2623 196.355C77.3456 193.272 82.3426 193.272 85.426 196.355ZM34.8101 145.739C37.8934 148.823 37.8934 153.82 34.8101 156.903C31.7268 159.986 26.7298 159.986 23.6464 156.903C20.563 153.82 20.5631 148.823 23.6464 145.739C26.7274 142.656 31.7267 142.656 34.8101 145.739Z" fill="white"/>
<path d="M121.904 12.3412C119.455 13.0878 116.863 13.5129 114.171 13.5547C111.476 13.5965 108.866 13.253 106.388 12.5812C112.334 22.4826 112.506 34.9019 106.914 44.9533C109.363 44.2067 111.956 43.7817 114.647 43.7376C117.347 43.6958 119.961 44.0415 122.441 44.7177C116.49 34.8163 116.314 22.3947 121.903 12.3411L121.904 12.3412Z" fill="white"/>
<path d="M217.653 121.904C216.906 119.455 216.481 116.862 216.44 114.171C216.398 111.476 216.741 108.866 217.413 106.388C207.512 112.334 195.092 112.506 185.041 106.914C185.788 109.363 186.213 111.955 186.257 114.647C186.299 117.347 185.953 119.961 185.277 122.441C195.178 116.49 207.6 116.314 217.653 121.903L217.653 121.904Z" fill="white"/>
<path d="M108.091 217.653C110.54 216.907 113.132 216.482 115.823 216.44C118.519 216.398 121.129 216.741 123.606 217.413C117.66 207.512 117.488 195.092 123.08 185.041C120.631 185.788 118.039 186.213 115.347 186.257C112.647 186.299 110.033 185.953 107.554 185.277C113.504 195.178 113.68 207.6 108.091 217.653L108.091 217.653Z" fill="white"/>
<path d="M12.3412 108.091C13.0878 110.54 13.5128 113.132 13.5546 115.823C13.5965 118.519 13.2529 121.129 12.5812 123.606C22.4826 117.66 34.9019 117.488 44.9532 123.08C44.2066 120.631 43.7816 118.039 43.7376 115.348C43.6957 112.647 44.0415 110.033 44.7176 107.554C34.8162 113.505 22.3947 113.68 12.3411 108.091L12.3412 108.091Z" fill="white"/>
</svg>
